#N canvas 531 50 875 741 12;
#X obj 20 51 identify;
#X obj 20 12 tgl 30 0 empty empty START 30 15 0 30 #fcfcfc #000000
#000000 0 1;
#X obj 180 20 adc~;
#X obj 180 54 sigmund~ notes env;
#X floatatom 178 100 5 0 0 0 - - - 0;
#X text 182 118 pitch;
#X floatatom 304 81 5 0 0 0 - - - 0;
#X text 281 102 envelope;
#X obj 16 105 bng 15 250 50 0 empty empty empty 17 7 0 10 #fcfcfc #000000
#000000;
#X obj 69 104 bng 15 250 50 0 empty empty empty 17 7 0 10 #fcfcfc #000000
#000000;
#X obj 131 224 audiolab/pp.vcfilter~;
#A saved empty_slot \; empty_slot \; empty_slot \; empty_slot \; empty_slot
\; empty_slot \; empty_slot \; empty_slot \; empty_slot \; empty_slot
\; empty_slot \; empty_slot \; empty_slot \; empty_slot \; empty_slot
\; empty_slot \; empty_slot \; empty_slot \; empty_slot \; empty_slot
\; empty_slot \;;
#X obj 304 165 sig~;
#X obj 179 76 mtof;
#X obj 178 136 sig~;
#X obj 132 345 dac~;
#X obj 38 179 line~;
#X obj 94 209 *~;
#X msg 75 132 1 100;
#X msg 15 131 0 100;
#N canvas 174 187 1266 685 messages 0;
#X obj 26 584 outlet;
#X obj 451 0 r \$0-presets;
#X obj 451 23 sel 0 1 2 3 4 5 6;
#X msg 417 99 feedback 90 \, crossover-frequency 2700 \, damping 70
\, modulation 0.1 \, predelay 0 \, times-center 33 \, times-slope 60
\, times-curve -67 \, angles-center 90 \, angles-slope -90 \, angles-curve
-60 \, gain 14 \, setblock 64 \, early 1.52588e-05 1.52588e-05 1.52588e-05
-1.66664 \, times 55 38.1108 199 24.6324 20.7735 17.6795 15.084 12.8412
10.8617 9.08693 7.47619 6 \, angles 172.5 71.1042 64.4533 60.2464 57.1102
54.5872 52.4653 50.6276 49.0027 47.5434 46.2171 45 \,;
#X msg 805 99 feedback 88 \, crossover-frequency 3000 \, damping 75
\, modulation 0.1 \, predelay 12 \, times-center 33 \, times-slope
34 \, times-curve -359 \, angles-center 45 \, angles-slope 0 \, angles-curve
0 \, gain 5 \, setblock 64 \, early 3.33331 6.66667 11.6666 15 \, times
100 36.2784 35.0701 34.3527 33.8389 33.4376 33.1079 32.8278 32.5843
32.3688 32.1754 32 \, angles 45 45 45 45 45 45 45 45 45 45 45 45 \,
;
#X msg 42 227 feedback 98 \, crossover-frequency 6000 \, damping 80
\, modulation 0 \, predelay 50 \, times-center 31 \, times-slope 39
\, times-curve -28 \, angles-center 100 \, angles-slope 100 \, angles-curve
-21 \, gain 0 \, setblock 64 \, early 3.33336 15 26.6667 41.6667 \,
times 93.3334 59.5004 51.1962 45.5882 41.2303 37.6155 34.5002 31.7471
29.2703 27.0122 24.932 23 \, angles 50 96.1389 107.7 115.762 122.157
127.543 132.24 136.433 140.237 143.732 146.972 150 \,;
#X msg 27 82 feedback 93 \, crossover-frequency 6000 \, damping 30
\, modulation 0.0909091 \, predelay 30.303 \, times-center 22 \, times-slope
40 \, times-curve -50 \, angles-center 90 \, angles-slope -71 \, angles-curve
-57 \, gain 0 \, setblock 64 \, early 1.66666 4.99998 10 18.3333 \,
times 43.3335 30.3556 23.7862 19.5764 16.4123 13.8513 11.687 9.80507
8.13534 6.63136 5.26076 4 \, angles 125.5 75.8606 70.4501 67.0158 64.4499
62.3824 60.6413 59.1317 57.7957 56.595 55.5029 54.5 \,;
#X msg 435 236 feedback 99 \, crossover-frequency 1100 \, damping 50
\, modulation 0.1 \, predelay 100 \, times-center 29 \, times-slope
-52 \, times-curve 16 \, angles-center 90 \, angles-slope -71 \, angles-curve
-43 \, gain 3 \, setblock 64 \, early 3.33334 10 15.0003 146.666 \,
times 6 6.2039 7.23621 9.54755 13.4949 19.3886 27.5083 38.112 51.4408
67.7224 87.1731 110 \, angles 125.5 80.3384 74.0284 69.9362 66.8369
64.3142 62.1728 60.3039 58.6404 57.138 55.7654 54.5 \,;
#X msg 817 235 feedback 99 \, crossover-frequency 13000 \, damping
50 \, modulation 0.2 \, predelay 0 \, times-center 27 \, times-slope
-51 \, times-curve 44 \, angles-center 90 \, angles-slope -71 \, angles-curve
-43 \, gain 10 \, setblock 64 \, early 3.33334 6.66667 8.33337 11.6667
\, times 3 3.00024 3.01025 3.09152 3.43272 4.44384 6.86452 11.884 21.2711
37.5135 63.9649 105 \, angles 169.5 80.3384 74.0284 69.9362 66.8369
64.3142 62.1728 60.3039 58.6404 57.138 55.7654 54.5 \,;
#X msg 49 356 feedback 98 \, crossover-frequency 8300 \, damping 0
\, modulation 0 \, predelay 0 \, times-center 0 \, times-slope -6 \,
times-curve -11 \, angles-center 90 \, angles-slope -90 \, angles-curve
-60 \, gain 0 \, setblock 8 \, early 0 0 0 0 \, times 0 0 0 0.46369
1.41268 2.24371 2.99142 3.67626 4.31152 4.90639 5.46755 6 \, angles
166.5 71.1042 96 121.5 163.5 54.5872 52.4653 50.6276 49.0027 47.5434
46.2171 45 \,;
#X connect 1 0 2 0;
#X connect 2 0 6 0;
#X connect 2 1 3 0;
#X connect 2 2 4 0;
#X connect 2 3 5 0;
#X connect 2 4 7 0;
#X connect 2 5 8 0;
#X connect 2 6 9 0;
#X connect 3 0 0 0;
#X connect 4 0 0 0;
#X connect 5 0 0 0;
#X connect 6 0 0 0;
#X connect 7 0 0 0;
#X connect 8 0 0 0;
#X connect 9 0 0 0;
#X restore 572 229 pd messages;
#X obj 588 254 r \$0-dry/wet;
#X msg 588 277 dry/wet \$1;
#X obj 337 283 audiolab/pp.twisted-delays2~ 12 200;
#A saved empty_slot \; empty_slot \; empty_slot \; empty_slot \; empty_slot
\; empty_slot \; empty_slot \; empty_slot \; empty_slot \; empty_slot
\; empty_slot \; empty_slot \; empty_slot \; empty_slot \; empty_slot
\; empty_slot \; empty_slot \; empty_slot \; empty_slot \; empty_slot
\; empty_slot \;;
#X obj 10 321 s \$0-presets;
#X obj 10 273 % 7;
#X obj 55 248 + 1;
#X obj 11 248 int;
#X floatatom 10 297 5 0 0 0 - - - 0;
#X obj 375 106 s \$0-dry/wet;
#X obj 20 77 select 0 1;
#X obj 304 133 / 4;
#X connect 0 0 29 0;
#X connect 1 0 0 0;
#X connect 2 0 3 0;
#X connect 2 0 16 1;
#X connect 2 0 22 0;
#X connect 3 0 12 0;
#X connect 3 1 6 0;
#X connect 4 0 13 0;
#X connect 6 0 28 0;
#X connect 6 0 30 0;
#X connect 8 0 18 0;
#X connect 8 0 26 0;
#X connect 9 0 17 0;
#X connect 10 0 14 0;
#X connect 11 0 10 2;
#X connect 12 0 4 0;
#X connect 13 0 10 1;
#X connect 15 0 16 0;
#X connect 16 0 10 0;
#X connect 17 0 15 0;
#X connect 18 0 15 0;
#X connect 19 0 22 1;
#X connect 20 0 21 0;
#X connect 21 0 22 1;
#X connect 22 0 14 1;
#X connect 24 0 27 0;
#X connect 25 0 26 1;
#X connect 26 0 25 0;
#X connect 26 0 24 0;
#X connect 27 0 23 0;
#X connect 29 0 8 0;
#X connect 29 1 9 0;
#X connect 30 0 11 0;
